<mxfile host="app.diagrams.net" modified="2023-06-05T00:23:54.241Z" agent="Mozilla/5.0 (X11; Linux x86_64; rv:108.0) Gecko/20100101 Firefox/108.0" etag="WdfuwMxTNERBYfokR25s" version="21.3.7" type="device">
  <diagram name="Page-1" id="Q59rC71x2KfZ1FHUU3U7">
    <mxGraphModel dx="1195" dy="605" grid="1" gridSize="10" guides="1" tooltips="1" connect="1" arrows="1" fold="1" page="1" pageScale="1" pageWidth="850" pageHeight="1100" math="0" shadow="0">
      <root>
        <mxCell id="0" />
        <mxCell id="1" parent="0" />
        <mxCell id="SH9_Yjjwa7sFVo5rOxp8-14" value="UML Class diagram" style="swimlane;whiteSpace=wrap" vertex="1" parent="1">
          <mxGeometry x="100" y="90" width="630" height="540" as="geometry" />
        </mxCell>
        <mxCell id="SH9_Yjjwa7sFVo5rOxp8-29" value="&lt;div&gt;Board&lt;/div&gt;" style="rounded=0;whiteSpace=wrap;html=1;fillColor=#eeeeee;strokeColor=#36393d;fontColor=#000000;strokeWidth=2;" vertex="1" parent="SH9_Yjjwa7sFVo5rOxp8-14">
          <mxGeometry x="135" y="60" width="130" height="20" as="geometry" />
        </mxCell>
        <mxCell id="SH9_Yjjwa7sFVo5rOxp8-30" value="+screen" style="rounded=0;whiteSpace=wrap;html=1;align=left;fillColor=#eeeeee;strokeColor=#36393d;fontColor=#000000;strokeWidth=2;" vertex="1" parent="SH9_Yjjwa7sFVo5rOxp8-14">
          <mxGeometry x="135" y="80" width="130" height="20" as="geometry" />
        </mxCell>
        <mxCell id="SH9_Yjjwa7sFVo5rOxp8-31" value="&lt;div align=&quot;left&quot;&gt;+generate_labyrinth&lt;/div&gt;&lt;div align=&quot;left&quot;&gt;+draw_cells&lt;br&gt;&lt;/div&gt;" style="rounded=0;whiteSpace=wrap;html=1;align=left;fillColor=#eeeeee;strokeColor=#36393d;fontColor=#000000;strokeWidth=2;" vertex="1" parent="SH9_Yjjwa7sFVo5rOxp8-14">
          <mxGeometry x="135" y="100" width="130" height="80" as="geometry" />
        </mxCell>
        <mxCell id="SH9_Yjjwa7sFVo5rOxp8-32" value="Cell" style="rounded=0;whiteSpace=wrap;html=1;fillColor=#eeeeee;strokeColor=#36393d;fontColor=#000000;strokeWidth=2;" vertex="1" parent="SH9_Yjjwa7sFVo5rOxp8-14">
          <mxGeometry x="385" y="60" width="130" height="20" as="geometry" />
        </mxCell>
        <mxCell id="SH9_Yjjwa7sFVo5rOxp8-49" value="1..*" style="edgeStyle=orthogonalEdgeStyle;rounded=0;orthogonalLoop=1;jettySize=auto;html=1;entryX=1;entryY=0.25;entryDx=0;entryDy=0;endArrow=diamondThin;endFill=0;strokeWidth=2;endSize=15;fillColor=#eeeeee;strokeColor=#F0F0F0;fontColor=#000000;" edge="1" parent="SH9_Yjjwa7sFVo5rOxp8-14" source="SH9_Yjjwa7sFVo5rOxp8-33" target="SH9_Yjjwa7sFVo5rOxp8-31">
          <mxGeometry x="-0.75" y="10" relative="1" as="geometry">
            <mxPoint x="270" y="120" as="targetPoint" />
            <mxPoint as="offset" />
          </mxGeometry>
        </mxCell>
        <mxCell id="SH9_Yjjwa7sFVo5rOxp8-33" value="&lt;div&gt;+x&lt;/div&gt;&lt;div&gt;+y&lt;/div&gt;&lt;div&gt;+walls&lt;br&gt;&lt;/div&gt;&lt;div&gt;+visited&lt;/div&gt;&lt;div&gt;+screen&lt;br&gt;&lt;/div&gt;" style="rounded=0;whiteSpace=wrap;html=1;align=left;fillColor=#eeeeee;strokeColor=#36393d;fontColor=#000000;strokeWidth=2;" vertex="1" parent="SH9_Yjjwa7sFVo5rOxp8-14">
          <mxGeometry x="385" y="80" width="130" height="80" as="geometry" />
        </mxCell>
        <mxCell id="SH9_Yjjwa7sFVo5rOxp8-34" value="&lt;div&gt;+draw&lt;/div&gt;&lt;div&gt;+check_neighbors&lt;br&gt;&lt;/div&gt;" style="rounded=0;whiteSpace=wrap;html=1;align=left;fillColor=#eeeeee;strokeColor=#36393d;fontColor=#000000;strokeWidth=2;" vertex="1" parent="SH9_Yjjwa7sFVo5rOxp8-14">
          <mxGeometry x="385" y="160" width="130" height="50" as="geometry" />
        </mxCell>
        <mxCell id="SH9_Yjjwa7sFVo5rOxp8-35" value="Player" style="rounded=0;whiteSpace=wrap;html=1;fillColor=#eeeeee;strokeColor=#36393d;fontColor=#000000;strokeWidth=2;" vertex="1" parent="SH9_Yjjwa7sFVo5rOxp8-14">
          <mxGeometry x="50" y="240" width="130" height="20" as="geometry" />
        </mxCell>
        <mxCell id="SH9_Yjjwa7sFVo5rOxp8-36" value="&lt;div&gt;+x&lt;/div&gt;&lt;div&gt;+y&lt;/div&gt;&lt;div&gt;+sx&lt;/div&gt;&lt;div&gt;+sy&lt;/div&gt;&lt;div&gt;+fx&lt;/div&gt;&lt;div&gt;+fy&lt;/div&gt;&lt;div&gt;+screen&lt;/div&gt;&lt;div&gt;+color&lt;br&gt;+start_color&lt;br&gt;+finish_color&lt;/div&gt;&lt;div&gt;+path&lt;/div&gt;&lt;div&gt;+stack&lt;br&gt;&lt;/div&gt;" style="rounded=0;whiteSpace=wrap;html=1;align=left;fillColor=#eeeeee;strokeColor=#36393d;fontColor=#000000;strokeWidth=2;" vertex="1" parent="SH9_Yjjwa7sFVo5rOxp8-14">
          <mxGeometry x="50" y="260" width="130" height="180" as="geometry" />
        </mxCell>
        <mxCell id="SH9_Yjjwa7sFVo5rOxp8-37" value="&lt;div&gt;+find_path_to_finish&lt;/div&gt;&lt;div&gt;+draw_start_finish&lt;/div&gt;&lt;div&gt;+draw_path&lt;/div&gt;&lt;div&gt;+draw_player&lt;br&gt;&lt;/div&gt;" style="rounded=0;whiteSpace=wrap;html=1;align=left;fillColor=#eeeeee;strokeColor=#36393d;fontColor=#000000;strokeWidth=2;" vertex="1" parent="SH9_Yjjwa7sFVo5rOxp8-14">
          <mxGeometry x="50" y="440" width="130" height="70" as="geometry" />
        </mxCell>
        <mxCell id="SH9_Yjjwa7sFVo5rOxp8-38" value="Human" style="rounded=0;whiteSpace=wrap;html=1;fillColor=#eeeeee;strokeColor=#36393d;fontColor=#000000;strokeWidth=2;" vertex="1" parent="SH9_Yjjwa7sFVo5rOxp8-14">
          <mxGeometry x="265" y="240" width="130" height="20" as="geometry" />
        </mxCell>
        <mxCell id="SH9_Yjjwa7sFVo5rOxp8-39" value="" style="rounded=0;whiteSpace=wrap;html=1;align=left;fillColor=#eeeeee;strokeColor=#36393d;fontColor=#000000;strokeWidth=2;" vertex="1" parent="SH9_Yjjwa7sFVo5rOxp8-14">
          <mxGeometry x="265" y="260" width="130" height="15" as="geometry" />
        </mxCell>
        <mxCell id="SH9_Yjjwa7sFVo5rOxp8-47" style="edgeStyle=orthogonalEdgeStyle;rounded=0;orthogonalLoop=1;jettySize=auto;html=1;entryX=1;entryY=0.278;entryDx=0;entryDy=0;entryPerimeter=0;strokeWidth=2;endSize=10;endArrow=block;endFill=0;fillColor=#eeeeee;strokeColor=#F0F0F0;fontColor=#000000;" edge="1" parent="SH9_Yjjwa7sFVo5rOxp8-14" source="SH9_Yjjwa7sFVo5rOxp8-40" target="SH9_Yjjwa7sFVo5rOxp8-36">
          <mxGeometry relative="1" as="geometry" />
        </mxCell>
        <mxCell id="SH9_Yjjwa7sFVo5rOxp8-50" style="edgeStyle=orthogonalEdgeStyle;rounded=0;orthogonalLoop=1;jettySize=auto;html=1;dashed=1;fillColor=#eeeeee;strokeColor=#f0f0f0;fontColor=#000000;strokeWidth=2;" edge="1" parent="SH9_Yjjwa7sFVo5rOxp8-14" source="SH9_Yjjwa7sFVo5rOxp8-40">
          <mxGeometry relative="1" as="geometry">
            <mxPoint x="450" y="210" as="targetPoint" />
          </mxGeometry>
        </mxCell>
        <mxCell id="SH9_Yjjwa7sFVo5rOxp8-40" value="+moveUP&lt;br&gt;+moveRIGHT&lt;br&gt;+moveLEFT&lt;br&gt;+moveDOWN" style="rounded=0;whiteSpace=wrap;html=1;align=left;fillColor=#eeeeee;strokeColor=#36393d;fontColor=#000000;strokeWidth=2;" vertex="1" parent="SH9_Yjjwa7sFVo5rOxp8-14">
          <mxGeometry x="265" y="275" width="130" height="70" as="geometry" />
        </mxCell>
        <mxCell id="SH9_Yjjwa7sFVo5rOxp8-51" style="edgeStyle=orthogonalEdgeStyle;rounded=0;orthogonalLoop=1;jettySize=auto;html=1;entryX=0.615;entryY=1.031;entryDx=0;entryDy=0;entryPerimeter=0;dashed=1;fillColor=#eeeeee;strokeColor=#FFFFFF;fontColor=#000000;strokeWidth=2;" edge="1" parent="SH9_Yjjwa7sFVo5rOxp8-14" source="SH9_Yjjwa7sFVo5rOxp8-41" target="SH9_Yjjwa7sFVo5rOxp8-34">
          <mxGeometry relative="1" as="geometry" />
        </mxCell>
        <mxCell id="SH9_Yjjwa7sFVo5rOxp8-41" value="Bot" style="rounded=0;whiteSpace=wrap;html=1;fillColor=#eeeeee;strokeColor=#36393d;fontColor=#000000;strokeWidth=2;" vertex="1" parent="SH9_Yjjwa7sFVo5rOxp8-14">
          <mxGeometry x="400" y="400" width="130" height="20" as="geometry" />
        </mxCell>
        <mxCell id="SH9_Yjjwa7sFVo5rOxp8-42" value="" style="rounded=0;whiteSpace=wrap;html=1;align=left;fillColor=#eeeeee;strokeColor=#36393d;fontColor=#000000;strokeWidth=2;" vertex="1" parent="SH9_Yjjwa7sFVo5rOxp8-14">
          <mxGeometry x="400" y="420" width="130" height="20" as="geometry" />
        </mxCell>
        <mxCell id="SH9_Yjjwa7sFVo5rOxp8-48" style="edgeStyle=orthogonalEdgeStyle;rounded=0;orthogonalLoop=1;jettySize=auto;html=1;entryX=1.006;entryY=0.211;entryDx=0;entryDy=0;endArrow=block;endFill=0;strokeWidth=2;endSize=10;entryPerimeter=0;fillColor=#eeeeee;strokeColor=#f0f0f0;fontColor=#000000;" edge="1" parent="SH9_Yjjwa7sFVo5rOxp8-14" source="SH9_Yjjwa7sFVo5rOxp8-43" target="SH9_Yjjwa7sFVo5rOxp8-37">
          <mxGeometry relative="1" as="geometry" />
        </mxCell>
        <mxCell id="SH9_Yjjwa7sFVo5rOxp8-43" value="+stepNext" style="rounded=0;whiteSpace=wrap;html=1;align=left;fillColor=#eeeeee;strokeColor=#36393d;fontColor=#000000;strokeWidth=2;" vertex="1" parent="SH9_Yjjwa7sFVo5rOxp8-14">
          <mxGeometry x="400" y="440" width="130" height="30" as="geometry" />
        </mxCell>
      </root>
    </mxGraphModel>
  </diagram>
</mxfile>
